<?xml version="1.0" standalone="no"?>
<!DOCTYPE svg PUBLIC "-//W3C//DTD SVG 1.1//EN" "http://www.w3.org/Graphics/SVG/1.1/DTD/svg11.dtd" >
<svg xmlns="http://www.w3.org/2000/svg" xmlns:xlink="http://www.w3.org/1999/xlink" version="1.1">
<metadata></metadata>
<defs>
<font id="webfontregular" horiz-adv-x="980" >
<font-face units-per-em="2048" ascent="1638" descent="-410" />
<missing-glyph horiz-adv-x="489" />
<glyph horiz-adv-x="0" />
<glyph horiz-adv-x="682" />
<glyph unicode=" "  horiz-adv-x="489" />
<glyph unicode="&#x09;" horiz-adv-x="489" />
<glyph unicode="&#xa0;" horiz-adv-x="489" />
<glyph unicode="!" horiz-adv-x="526" d="M135 1456h262l-80 -1098h-104zM162 0v207h209v-207h-209z" />
<glyph unicode="&#x22;" horiz-adv-x="595" d="M88 1096v360h154v-360h-154zM356 1096v360h156v-360h-156z" />
<glyph unicode="#" d="M8 444v136h203l45 294h-188v136h202l64 446h160l-64 -446h201l63 446h160l-63 -446h188v-136h-203l-45 -294h189v-136h-203l-64 -444h-159l63 444h-201l-63 -444h-160l64 444h-189zM371 580h200l45 294h-200z" />
<glyph unicode="$" d="M18 180l144 152q58 -66 121.5 -104t156.5 -46v457q-194 47 -274 149q-82 104 -82 261q0 178 96 288t260 131v144h105v-144q188 -3 346 -137l-119 -155q-101 87 -227 96v-436q198 -41 284 -152q91 -117 91 -270q0 -174 -105 -288t-270 -138v-221h-105v221 q-122 -1 -233 54.5t-189 137.5zM293 1053q0 -83 35 -126t112 -67v412q-60 -9 -104 -62q-43 -52 -43 -157zM545 182q86 20 126 77t40 157q0 69 -35 125q-34 55 -131 73v-432z" />
<glyph unicode="%" horiz-adv-x="1060" d="M106 1126v140q0 104 60 155q56 47 133 47t133 -47q60 -51 60 -155v-140q0 -107 -60 -155q-59 -47 -133 -47t-133 47q-60 48 -60 155zM121 0l690 1456h135l-690 -1456h-135zM223 1141q0 -101 76 -101t76 101v110q0 101 -76 101t-76 -101v-110zM575 188v140q0 104 60 155 q56 47 133 47t133 -47q60 -51 60 -155v-140q0 -105 -60 -153q-59 -47 -133 -47t-133 47q-60 48 -60 153zM692 203q0 -101 76 -101t76 101v110q0 101 -76 101t-76 -101v-110z" />
<glyph unicode="&#x26;" horiz-adv-x="1325" d="M82 434q0 144 78 252.5t200 173.5q-120 134 -120 277q0 127 90 231q87 100 237 100q151 0 238 -100q90 -104 90 -231q0 -212 -244 -326l312 -375q72 91 127 244l186 -74q-81 -199 -191 -315l246 -291h-246l-135 145q-90 -66 -190 -112q-99 -45 -217 -45q-210 0 -334 133 q-127 136 -127 313zM266 436q0 -113 80 -190q79 -76 191 -76q64 0 143 31t149 98l-352 422q-211 -114 -211 -285zM424 1145q0 -88 108 -187q96 35 140 86q39 45 39 101q0 58 -42.5 98.5t-101.5 40.5q-60 0 -101.5 -40.5t-41.5 -98.5z" />
<glyph unicode="'" horiz-adv-x="489" d="M143 1096v209l209 151v-360h-209z" />
<glyph unicode="(" horiz-adv-x="567" d="M125 623q0 210 80 432q78 217 244 401h81q-196 -409 -196 -833q0 -425 196 -834h-81q-166 184 -244 401q-80 222 -80 433z" />
<glyph unicode=")" horiz-adv-x="567" d="M43 -211q197 419 197 834q0 414 -197 833h82q166 -189 242 -401q82 -227 82 -432q0 -206 -82 -433q-76 -212 -242 -401h-82z" />
<glyph unicode="*" horiz-adv-x="718" d="M76 1049l170 104l-170 104l61 95l164 -95v199h123v-199l164 95l61 -95l-170 -104l170 -104l-61 -95l-164 95v-199h-123v199l-164 -95z" />
<glyph unicode="+" horiz-adv-x="1226" d="M98 436v160h439v438h159v-438h439v-160h-439v-436h-159v436h-439z" />
<glyph unicode="," horiz-adv-x="489" d="M143 -152v359h209v-207z" />
<glyph unicode="-" horiz-adv-x="831" d="M111 461v209h616v-209h-616z" />
<glyph unicode="." horiz-adv-x="489" d="M143 0v207h209v-207h-209z" />
<glyph unicode="/" horiz-adv-x="679" d="M18 -12l490 1480h160l-490 -1480h-160z" />
<glyph unicode="0" d="M80 406v643q0 201 125 311q123 108 289 108q163 0 286 -108q127 -112 127 -311v-643q0 -201 -127 -310q-126 -108 -286 -108q-163 0 -289 108q-125 107 -125 310zM289 418q0 -101 54 -162t151 -61q95 0 149.5 61t54.5 162v618q0 101 -54.5 162.5t-149.5 61.5t-150 -61.5 t-55 -162.5v-618z" />
<glyph unicode="1" horiz-adv-x="690" d="M135 1083v222l209 151h211v-1460h-211v1239z" />
<glyph unicode="2" d="M68 0v195l569 712q53 68 53 146q0 79 -53 141q-57 66 -148 66t-149 -59.5t-64 -151.5h-208q0 176 120 299q117 120 285 120q181 0 303 -122q121 -121 121 -295q0 -147 -86 -256l-469 -588h555v-207h-829z" />
<glyph unicode="3" d="M29 360h209q27 -73 77 -120q48 -45 140 -45q86 0 153 61q68 62 68 170t-68 170q-67 61 -157 61h-89v185h72q100 0 162.5 56.5t62.5 150.5q0 88 -62.5 149.5t-150.5 61.5q-66 0 -124 -43q-57 -43 -76 -134h-209q12 154 129 271q114 114 272 114q197 0 312 -127 q118 -130 118 -288q0 -201 -155 -301q172 -114 172 -320q0 -203 -129 -323q-130 -121 -314 -121q-147 0 -266 94q-120 95 -147 278z" />
<glyph unicode="4" d="M27 215v197l487 1044h234l-494 -1044h381v419h209v-419h117v-197h-117v-215h-209v215h-608z" />
<glyph unicode="5" d="M78 365h209q38 -170 209 -170q154 0 178 104q26 114 26 209q0 121 -41 201q-40 79 -170 79q-120 0 -188 -120h-197v788h777v-209h-580v-329q101 79 234 79q79 0 148 -30t112 -76q58 -60 86 -141q28 -79 28 -258q0 -138 -18 -210t-72 -141q-39 -49 -127 -104 q-79 -49 -188 -49q-140 0 -273 86q-132 85 -153 291z" />
<glyph unicode="6" horiz-adv-x="993" d="M82 426q0 134 55 244l391 784h234l-307 -616h4q47 18 110 18q139 0 244 -96q107 -98 107 -311q0 -252 -136 -361q-132 -106 -297 -106q-153 0 -280 118q-125 116 -125 326zM291 430q0 -240 209 -240q73 0 141 56t68 184q0 109 -55.5 174.5t-153.5 65.5q-99 0 -154 -65.5 t-55 -174.5z" />
<glyph unicode="7" d="M106 1036v420h830v-209l-494 -1247h-233l493 1247h-387v-211h-209z" />
<glyph unicode="8" d="M49 424q0 214 172 328q-67 60 -106 129q-39 68 -39 166q0 177 119 299t299 122q178 0 297 -122q120 -123 120 -299q0 -95 -41 -166q-42 -72 -104 -129q172 -117 172 -328q0 -191 -133 -315q-130 -121 -311 -121q-184 0 -314 121q-131 122 -131 315zM258 426 q0 -102 70 -166q71 -65 166 -65q92 0 163 65q72 66 72 166t-72 166q-71 65 -163 65q-95 0 -166 -65q-70 -64 -70 -166zM285 1051q0 -105 63 -156q65 -53 146 -53q78 0 143 53t65 156q0 102 -65 155q-66 54 -143 54q-80 0 -146 -54q-63 -51 -63 -155z" />
<glyph unicode="9" horiz-adv-x="993" d="M82 999q0 252 131 359q135 108 299 108q154 0 281 -118q127 -121 127 -326q0 -128 -58 -244l-391 -784h-233l307 616h-4q-49 -18 -111 -18q-142 0 -244 96q-104 94 -104 311zM291 1018q0 -111 54.5 -175.5t154.5 -64.5q86 0 147 58q62 56 62 182q0 239 -209 239 q-75 0 -142 -55t-67 -184z" />
<glyph unicode=":" horiz-adv-x="489" d="M143 0v207h209v-207h-209zM143 463v209h209v-209h-209z" />
<glyph unicode=";" horiz-adv-x="489" d="M143 -152v359h209v-207zM143 463v209h209v-209h-209z" />
<glyph unicode="&#x3c;" horiz-adv-x="1249" d="M96 463v145l1037 461v-172l-850 -360l850 -365v-172z" />
<glyph unicode="=" horiz-adv-x="1226" d="M98 231v160h1037v-160h-1037zM98 641v160h1037v-160h-1037z" />
<glyph unicode="&#x3e;" horiz-adv-x="1212" d="M96 0v172l852 365l-852 360v172l1037 -461v-145z" />
<glyph unicode="?" horiz-adv-x="946" d="M61 1036v41q0 167 115 279t273 112q151 0 272 -106q123 -108 123 -287q0 -124 -66 -215l-186 -256q-35 -50 -35 -129v-117h-209v134q0 69 11 110.5t42 85.5l183 254q51 66 51 135q0 82 -60 133q-59 50 -116 50q-77 0 -133 -50t-56 -174h-209zM348 0v207h209v-207h-209z " />
<glyph unicode="@" horiz-adv-x="1636" d="M80 735q0 325 219 529t547 204q293 0 504 -172q213 -174 213 -440q0 -260 -170 -416q-171 -157 -297 -157q-143 0 -164 131h-4q-44 -50 -99 -90q-56 -41 -159 -41q-128 0 -211 92q-80 89 -80 219q0 207 133 383q135 178 356 178q164 0 232 -160h4l24 105h136l-164 -531 q-21 -62 -21 -104q0 -59 47 -59q86 0 181 147q96 149 96 293q0 196 -154 332q-149 131 -395 131q-288 0 -453 -174q-161 -170 -161 -404q0 -248 168 -416q170 -170 458 -170q178 0 301 47t215 144h136q-98 -157 -274.5 -252.5t-401.5 -95.5q-327 0 -545 209 q-217 208 -217 538zM539 608q0 -83 48.5 -136.5t127.5 -53.5q134 0 225 149q94 154 94 271q0 69 -47 125q-48 57 -119 57q-144 0 -237 -143q-92 -142 -92 -269z" />
<glyph unicode="A" horiz-adv-x="1275" d="M2 0l533 1458h182l530 -1458h-231l-113 330h-553l-114 -330h-234zM416 524h422q-27 79 -70 205t-75 222t-66 204q-125 -381 -211 -631z" />
<glyph unicode="B" horiz-adv-x="1247" d="M156 0v1456h565q211 0 321 -110q109 -109 109 -281q0 -90 -43 -172t-170 -141v-4q119 -27 178 -127q60 -102 60 -209q0 -189 -121 -301q-120 -111 -285 -111h-614zM377 207h340q122 0 180 67q57 66 57 152q0 88 -57 154q-56 65 -180 65h-340v-438zM377 842h319 q118 0 176 61q60 63 60 148q0 84 -60 147q-59 62 -176 62h-319v-418z" />
<glyph unicode="C" horiz-adv-x="1136" d="M106 727q0 263 15 340q16 83 49 139q54 98 168 178q119 84 289 84q209 0 342 -127q136 -130 170 -305h-234q-28 85 -100 148t-178 63q-72 0 -130.5 -30t-95.5 -76q-44 -56 -59 -123q-14 -63 -14 -291q0 -230 14 -293q14 -64 59 -121q34 -47 93.5 -76.5t132.5 -29.5 q184 0 278 199h234q-44 -204 -185 -312q-138 -106 -327 -106q-173 0 -289 82q-114 80 -168 178q-33 56 -49 139q-15 77 -15 340z" />
<glyph unicode="D" horiz-adv-x="1288" d="M156 0v1456h510q300 0 444 -246q53 -87 66 -174q12 -80 12 -309q0 -235 -17 -328q-21 -106 -86 -190t-159 -141q-110 -68 -275 -68h-495zM377 207h264q181 0 270 127q36 53 45 119q11 79 11 266q0 180 -11 270q-17 116 -104 187t-211 71h-264v-1040z" />
<glyph unicode="E" horiz-adv-x="1136" d="M156 0v1456h931v-209h-710v-416h604v-196h-604v-428h710v-207h-931z" />
<glyph unicode="F" horiz-adv-x="1097" d="M156 0v1456h931v-209h-710v-430h604v-196h-604v-621h-221z" />
<glyph unicode="G" horiz-adv-x="1247" d="M106 727q0 263 15 340q16 83 49 139q54 98 168 178q119 84 289 84q209 0 342 -127q136 -130 170 -305h-234q-28 85 -100 148t-178 63q-72 0 -130.5 -30t-95.5 -76q-44 -56 -59 -123q-14 -63 -14 -291q0 -230 14 -293q14 -64 59 -121q34 -47 93.5 -76.5t132.5 -29.5 q125 0 211 86q88 88 88 223v76h-297v209h518v-297q0 -215 -152 -367q-149 -149 -368 -149q-173 0 -289 82q-114 80 -168 178q-33 56 -49 139q-15 77 -15 340z" />
<glyph unicode="H" horiz-adv-x="1325" d="M156 0v1456h221v-625h577v625h222v-1456h-222v635h-577v-635h-221z" />
<glyph unicode="I" horiz-adv-x="526" d="M156 0v1456h221v-1456h-221z" />
<glyph unicode="J" horiz-adv-x="983" d="M4 176l178 129q67 -98 195 -98q80 0 166 59t86 207v983h221v-1005q0 -218 -145 -342q-142 -121 -322 -121q-125 0 -221.5 51.5t-157.5 136.5z" />
<glyph unicode="K" horiz-adv-x="1288" d="M156 0v1456h221v-751h4l600 751h262l-467 -575l516 -881h-262l-397 711l-256 -269v-442h-221z" />
<glyph unicode="L" horiz-adv-x="1136" d="M156 0v1456h221v-1249h710v-207h-931z" />
<glyph unicode="M" horiz-adv-x="1550" d="M156 0v1456h209l417 -950l410 950h209v-1456h-221v907h-4l-306 -700h-184l-305 700h-4v-907h-221z" />
<glyph unicode="N" horiz-adv-x="1398" d="M156 0v1456h209l659 -1036h2v1036h223v-1456h-209l-659 1034h-4v-1034h-221z" />
<glyph unicode="O" horiz-adv-x="1247" d="M106 727q0 263 15 340q16 83 49 139q54 98 168 178q119 84 289 84q167 0 286 -84q117 -82 170 -178q36 -67 50 -139q14 -71 14 -340t-14 -340q-14 -72 -50 -139q-53 -96 -170 -178q-116 -82 -286 -82q-173 0 -289 82q-114 80 -168 178q-33 56 -49 139q-15 77 -15 340z M328 727q0 -230 14 -293q14 -64 59 -121q34 -47 93.5 -76.5t132.5 -29.5t132 29.5t93 76.5q42 54 57 121q17 77 17 293q0 215 -17 291q-29 129 -147 196q-64 33 -135 33q-72 0 -130.5 -30t-95.5 -76q-44 -56 -59 -123q-14 -63 -14 -291z" />
<glyph unicode="P" horiz-adv-x="1212" d="M156 0v1456h528q111 0 183.5 -22.5t144.5 -79.5q70 -54 113.5 -145t43.5 -203q0 -157 -116 -297q-118 -142 -340 -142h-336v-567h-221zM377 776h328q118 0 182 76q61 73 61 160q0 110 -67.5 172.5t-184.5 62.5h-319v-471z" />
<glyph unicode="Q" horiz-adv-x="1247" d="M106 727q0 263 15 340q16 83 49 139q54 98 168 178q119 84 289 84q167 0 286 -84q117 -82 170 -178q36 -67 50 -139q14 -71 14 -340q0 -237 -12 -317q-13 -85 -41 -140l192 -153l-133 -152l-182 148q-142 -125 -344 -125q-173 0 -289 82q-114 80 -168 178q-33 56 -49 139 q-15 77 -15 340zM328 727q0 -230 14 -293q14 -64 59 -121q34 -47 93.5 -76.5t132.5 -29.5q96 0 164 51l-187 148l131 151l170 -135q21 71 21 305q0 215 -17 291q-29 129 -147 196q-64 33 -135 33q-72 0 -130.5 -30t-95.5 -76q-44 -56 -59 -123q-14 -63 -14 -291z" />
<glyph unicode="R" horiz-adv-x="1247" d="M156 0v1456h569q277 0 399 -229q43 -79 43 -178q0 -148 -78.5 -254.5t-203.5 -149.5l338 -645h-262l-302 621h-282v-621h-221zM377 817h334q122 0 186 70q61 67 61 162q0 102 -63.5 156.5t-171.5 54.5h-346v-443z" />
<glyph unicode="S" horiz-adv-x="1173" d="M29 186l145 166q79 -65 186 -105t228 -40q124 0 206.5 51.5t82.5 151.5q0 172 -191 196q-43 5 -106 14.5t-86 12.5q-189 24 -289 139q-99 114 -99 270q0 189 125 308q124 118 351 118q241 0 473 -151l-123 -182q-178 112 -361 112q-103 0 -174 -53q-69 -51 -69 -156 q0 -61 47 -114q48 -54 160 -72q116 -18 163 -23q202 -24 301 -147t99 -272q0 -138 -67.5 -234.5t-181.5 -142t-263 -45.5q-331 0 -557 198z" />
<glyph unicode="T" horiz-adv-x="1024" d="M4 1260v196h1020v-196h-399v-1260h-222v1260h-399z" />
<glyph unicode="U" horiz-adv-x="1288" d="M129 492v964h221v-940q0 -149 86 -229t211 -80t211 80t86 229v940h221v-964q0 -228 -151 -367q-149 -137 -367 -137q-219 0 -368 137q-150 138 -150 367z" />
<glyph unicode="V" horiz-adv-x="1136" d="M4 1456h234l331 -1110h4l332 1110h234l-482 -1456h-172z" />
<glyph unicode="W" horiz-adv-x="1701" d="M25 1456h233l229 -1036h5l282 1036h160l283 -1036h4l229 1036h233l-364 -1456h-184l-281 1049h-2l-279 -1049h-184z" />
<glyph unicode="X" horiz-adv-x="1095" d="M-18 0l446 745l-418 711h250l291 -506l291 506h250l-418 -711l446 -745h-250l-319 541l-320 -541h-249z" />
<glyph unicode="Y" horiz-adv-x="1024" d="M-29 1456h234l309 -647l309 647h234l-439 -858v-598h-208v598z" />
<glyph unicode="Z" horiz-adv-x="1060" d="M68 0v182l661 1078h-635v196h905v-166l-663 -1083h663v-207h-931z" />
<glyph unicode="[" horiz-adv-x="567" d="M150 -211v1667h378v-135h-194v-1397h194v-135h-378z" />
<glyph unicode="\" horiz-adv-x="704" d="M43 1468h154l475 -1484h-156z" />
<glyph unicode="]" horiz-adv-x="567" d="M45 -76h195v1397h-195v135h379v-1667h-379v135z" />
<glyph unicode="^" horiz-adv-x="1107" d="M63 575l433 881h131l432 -881h-168l-330 709l-330 -709h-168z" />
<glyph unicode="_" horiz-adv-x="1024" d="M0 -135h1024v-103h-1024v103z" />
<glyph unicode="`" horiz-adv-x="499" d="M29 1468h268l180 -299h-166z" />
<glyph unicode="a" horiz-adv-x="983" d="M78 299q0 129 84 219q81 87 244 90h280v111q0 133 -198 133h-9q-66 0 -119 -16q-46 -21 -71 -66l-160 127q116 152 332 152h8h14q180 0 291 -74q112 -78 115 -268v-711h-203v90h-4q-29 -56 -90 -79t-158 -23q-171 3 -260 92q-96 90 -96 223zM313 219q44 -41 146 -41h19 q110 0 161 33q47 33 47 149v76h-242q-176 -6 -176 -123q0 -58 45 -94z" />
<glyph unicode="b" horiz-adv-x="1060" d="M137 0v1456h209v-530q58 56 123 90q62 33 145 33q174 0 279 -136q41 -53 57 -129q17 -83 17 -266q0 -179 -17 -266q-33 -151 -172 -227q-67 -37 -164 -37q-162 0 -268 118v-106h-209zM346 518q0 -106 29 -219q27 -104 176 -104q146 0 176 102q31 105 31 221t-31 221 q-30 101 -176 101q-149 0 -176 -105q-29 -113 -29 -217z" />
<glyph unicode="c" horiz-adv-x="907" d="M57 516q0 285 146 410q144 123 325 123q215 0 373 -181l-153 -137q-89 109 -211 109q-271 0 -271 -324q0 -321 271 -321q125 0 211 108l153 -137q-155 -178 -373 -178q-183 0 -325 121q-146 125 -146 407z" />
<glyph unicode="d" horiz-adv-x="1060" d="M137 518q0 192 15 266q15 73 59 129q102 136 278 136q84 0 146 -33q65 -34 123 -90v530h209v-1456h-209v106q-106 -118 -269 -118q-178 0 -278 133q-44 57 -59 131q-15 77 -15 266zM346 518q0 -122 29 -221q30 -102 178 -102q144 0 174 104q31 109 31 219q0 108 -31 217 q-30 105 -174 105q-148 0 -178 -101q-29 -99 -29 -221z" />
<glyph unicode="e" horiz-adv-x="1024" d="M86 514q0 302 139 420q136 115 289 115q171 0 299 -119q127 -118 127 -320v-172h-645q0 -120 66 -188t182 -68q129 0 227 101l152 -129q-140 -166 -375 -166q-165 0 -311 102q-150 105 -150 424zM295 610h438q-5 108 -62 175t-157 67t-158 -66.5t-61 -175.5z" />
<glyph unicode="f" horiz-adv-x="567" d="M66 877v159h104v138q0 144 80 212q82 70 203 70h135v-196h-119q-90 0 -90 -86v-138h209v-159h-209v-877h-209v877h-104z" />
<glyph unicode="g" horiz-adv-x="1060" d="M100 516q0 210 17 283q15 65 61 123q32 40 103 86q64 41 172 41q151 0 268 -123v110h209v-1013q0 -232 -137 -345q-134 -110 -314 -110q-107 0 -200.5 50t-159.5 124l162 129q94 -94 202 -94q106 0 172 59.5t66 163.5v106q-106 -118 -268 -118q-107 0 -172 39 q-128 75 -164 209q-17 73 -17 280zM309 516q0 -126 6 -166q6 -39 35 -76q60 -79 166 -79q100 0 164 79q27 34 33 76q8 54 8 166t-8 166q-6 40 -33 78q-68 80 -164 80q-102 0 -166 -80q-30 -41 -35 -78q-6 -40 -6 -166z" />
<glyph unicode="h" horiz-adv-x="1097" d="M137 0v1456h209v-530h4q99 123 271 123q117 0 233 -93q113 -91 113 -268v-688h-209v616q0 98 -56 161t-149 63q-94 0 -150.5 -62.5t-56.5 -161.5v-616h-209z" />
<glyph unicode="i" horiz-adv-x="489" d="M143 0v1036h209v-1036h-209zM143 1247v209h209v-209h-209z" />
<glyph unicode="j" horiz-adv-x="526" d="M-12 -223h59q117 0 117 110v1149h209v-1165q0 -129 -85.5 -211t-217.5 -82h-82v199zM164 1247v209h209v-209h-209z" />
<glyph unicode="k" horiz-adv-x="1060" d="M137 0v1456h209v-907h4l400 487h249l-358 -405l408 -631h-263l-276 483l-164 -186v-297h-209z" />
<glyph unicode="l" horiz-adv-x="526" d="M137 250v1206h209v-1190q0 -71 78 -71h72v-195h-93q-114 0 -190 55t-76 195z" />
<glyph unicode="m" horiz-adv-x="1742" d="M150 0v1036h208v-110h4q99 123 271 123q110 0 172 -39q72 -45 121 -97q124 136 327 136q118 0 234 -93q112 -90 112 -268v-688h-208v616q0 98 -56 161t-149 63q-94 0 -150.5 -62.5t-56.5 -161.5v-616h-209v616q0 98 -56 161t-149 63q-94 0 -150.5 -62.5t-56.5 -161.5 v-616h-208z" />
<glyph unicode="n" horiz-adv-x="1097" d="M137 0v1036h209v-110h4q99 123 271 123q117 0 233 -93q113 -91 113 -268v-688h-209v616q0 98 -56 161t-149 63q-94 0 -150.5 -62.5t-56.5 -161.5v-616h-209z" />
<glyph unicode="o" horiz-adv-x="1024" d="M86 518q0 157 27 250q48 149 204 238q76 43 197 43t197 -43q79 -45 129 -101.5t75 -136.5q25 -86 25 -250q0 -166 -25 -252q-49 -152 -204 -237q-72 -41 -197 -41t-197 41q-155 85 -204 237q-27 93 -27 252zM295 518q0 -108 10 -160q9 -44 41 -88q51 -75 168 -75 q114 0 168 75q34 50 42.5 95.5t8.5 150.5t-8.5 150.5t-42.5 97.5q-55 76 -168 76q-116 0 -168 -76q-35 -50 -43 -94.5t-8 -151.5z" />
<glyph unicode="p" horiz-adv-x="1060" d="M137 -422v1458h209v-108q109 121 268 121q174 0 279 -136q41 -53 57 -129q17 -83 17 -268q0 -181 -17 -264q-33 -151 -172 -227q-67 -37 -164 -37q-85 0 -146.5 31.5t-121.5 89.5v-531h-209zM346 516q0 -104 29 -217q27 -104 176 -104q146 0 176 102q31 105 31 219 q0 118 -31 223q-30 101 -176 101q-149 0 -176 -105q-29 -113 -29 -219z" />
<glyph unicode="q" horiz-adv-x="1060" d="M100 516q0 194 15 268q15 73 59 129q102 136 279 136q156 0 268 -121v108h209v-1458h-209v531q-124 -121 -268 -121q-179 0 -279 133q-44 56 -59 131q-15 74 -15 264zM309 516q0 -120 29 -219q30 -102 178 -102q144 0 174 104q31 109 31 217q0 110 -31 219 q-30 105 -174 105q-148 0 -178 -101q-29 -99 -29 -223z" />
<glyph unicode="r" horiz-adv-x="794" d="M137 0v1036h209v-110h4q99 123 271 123q111 0 217 -80l-152 -181q-67 52 -137 52q-80 0 -141 -52q-62 -53 -62 -165v-623h-209z" />
<glyph unicode="s" d="M23 172l145 143q136 -133 328 -133q86 0 145 32.5t59 100.5q0 91 -127 103l-184 16q-125 9 -215 86q-84 72 -84 209q0 161 111 240q112 80 276 80q236 0 408 -142l-129 -151q-69 46 -133 71t-146 25q-101 0 -139 -35q-39 -36 -39 -90q0 -34 29 -63t108 -35l172 -13 q164 -12 232 -98q69 -87 69 -213q0 -153 -125 -235t-305 -82q-260 0 -456 184z" />
<glyph unicode="t" horiz-adv-x="567" d="M45 877v159h105v316h208v-316h152v-159h-152v-605q0 -77 74 -77h78v-195h-109q-114 0 -182.5 68.5t-68.5 185.5v623h-105z" />
<glyph unicode="u" horiz-adv-x="1097" d="M137 346v690h209v-618q0 -100 56 -161.5t151 -61.5q93 0 149 62t56 161v618h209v-1036h-209v109h-4q-97 -121 -269 -121q-123 0 -235 90q-113 91 -113 268z" />
<glyph unicode="v" horiz-adv-x="907" d="M-10 1036h221l244 -727h4l243 727h222l-381 -1036h-172z" />
<glyph unicode="w" horiz-adv-x="1476" d="M6 1036h221l199 -727h4l236 727h151l236 -727h4l198 727h222l-332 -1036h-184l-218 725h-4l-217 -725h-184z" />
<glyph unicode="x" d="M23 0l354 528l-340 508h250l207 -336l206 336h250l-340 -508l355 -528h-250l-221 344l-222 -344h-249z" />
<glyph unicode="y" horiz-adv-x="907" d="M-12 1036h221l246 -727h4l246 727h221l-447 -1251q-43 -120 -121 -164q-76 -43 -172 -43h-69v199h61q94 0 125 90l57 172z" />
<glyph unicode="z" horiz-adv-x="907" d="M70 0v164l520 688h-492v184h746v-166l-520 -675h520v-195h-774z" />
<glyph unicode="{" horiz-adv-x="600" d="M53 555v133q40 0 70 23q30 18 47 53q41 71 41 172v293q2 98 53 162.5t139 64.5h170v-133h-98q-88 -2 -88 -172v-264q0 -120 -65 -195q-61 -61 -95 -67v-4q14 -3 43 -19q31 -21 52 -47q65 -68 65 -201v-264q0 -69 20.5 -117.5t67.5 -52.5h98v-133h-170q-86 1 -138 65.5 t-54 159.5v291q0 104 -39.5 176.5t-118.5 75.5z" />
<glyph unicode="|" horiz-adv-x="333" d="M86 -16v1484h156v-1484h-156z" />
<glyph unicode="}" horiz-adv-x="333" d="M27 -80h98q45 3 66.5 53.5t21.5 116.5v266q0 70 20 117q19 52 46 82q57 60 88 66v4q-24 11 -37 18q-19 10 -51 45q-28 32 -46 80q-20 47 -20 121v262q0 43 -7.5 79t-28.5 64t-54 29h-96v133h168q82 0 141 -59q50 -59 53 -168v-291q0 -102 43 -172q38 -72 113 -78l6 -133 q-53 -3 -90.5 -40t-54.5 -90.5t-17 -117.5v-295q-2 -98 -53 -161t-139 -64h-170v133z" />
<glyph unicode="~" horiz-adv-x="1026" d="M61 485q28 62 93 121q61 55 155 58q46 0 111 -21q45 -17 119 -51t100 -45q62 -27 94 -27q60 0 103 49q31 34 71 101l72 -129q-32 -71 -88 -119q-57 -57 -160 -57q-51 0 -104 20q-17 6 -57.5 22t-59.5 23q-68 33 -107 49q-62 25 -96 27q-56 -3 -98 -45q-52 -61 -76 -103z " />
<glyph unicode="&#xa1;" horiz-adv-x="366" d="M53 -426l78 1100h100l76 -1100h-254zM80 827v207h203v-207h-203z" />
<glyph unicode="&#xa2;" horiz-adv-x="933" d="M74 514q0 266 129 395q122 128 286 140v186h78v-186q211 -30 324 -183l-148 -137q-63 84 -176 111v-647q115 24 176 106l148 -135q-111 -150 -324 -180v-189h-78v189q-165 12 -286 139q-129 126 -129 391zM274 514q0 -300 215 -324v650q-215 -21 -215 -326z" />
<glyph unicode="&#xa3;" horiz-adv-x="1021" d="M78 610v135h112q-74 165 -71 310q2 184 103.5 298t275.5 115q204 -3 305 -116q96 -113 96 -303h-201q-12 223 -186 223q-95 -3 -141.5 -57.5t-48.5 -163.5q0 -167 71 -306h336v-135h-285q34 -98 37 -180q-3 -117 -61 -221q70 -7 112 -14q73 -17 115 -17q109 0 199 70 l129 -162q-71 -58 -150 -82q-79 -20 -145 -20q-43 2 -196.5 20t-200.5 19q-88 0 -179 -39v194q66 38 152 41q32 95 35 176q0 25 -6 57.5t-11 52t-17.5 58.5t-14.5 47h-164z" />
<glyph unicode="&#xa4;" horiz-adv-x="995" d="M55 371l99 100q-76 95 -76 254q0 158 76 256l-99 98l107 107l96 -101q89 74 248 80q151 -3 244 -75l98 96l102 -107l-98 -100q77 -100 80 -254q-3 -161 -78 -254l96 -100l-102 -109l-98 103q-95 -80 -244 -80q-68 0 -136.5 23.5t-111.5 56.5l-96 -103zM231 725 q0 -130 75 -212.5t200 -82.5q126 0 199 81.5t73 213.5q-9 289 -272 295q-269 -6 -275 -295z" />
<glyph unicode="&#xa5;" horiz-adv-x="1122" d="M59 1456h215l289 -649l291 649h215l-317 -670h206v-135h-272l-27 -55v-137h299v-135h-299v-328h-190v328h-299v135h299v137l-27 55h-272v135h209z" />
<glyph unicode="&#xa6;" horiz-adv-x="333" d="M86 -16v555h156v-555h-156zM86 913v555h156v-555h-156z" />
<glyph unicode="&#xa7;" horiz-adv-x="870" d="M55 547q-3 136 37 215q40 78 164 131q-141 83 -135 244q0 145 94 239q87 87 225 90q141 0 234 -84q93 -87 96 -270h-176q0 78 -39.5 124t-114.5 46q-64 -3 -102.5 -38t-38.5 -93q0 -65 45 -94q54 -41 160 -74q166 -47 246 -129q79 -82 79 -283q0 -132 -30 -196 q-41 -78 -164 -142q82 -34 121 -97.5t39 -166.5q-3 -167 -107 -268q-103 -97 -258 -100q-134 3 -233 102q-103 100 -103 272h178q6 -78 51.5 -127.5t122.5 -50.5q71 0 113.5 43.5t42.5 116.5q0 78 -35 113q-33 30 -166 71l-73 29q-165 56 -219 139q-57 81 -54 238zM256 563 q-3 -104 37 -160q16 -28 57 -51q34 -22 92 -22q115 3 152 73q36 50 33 160q0 77 -9 107q-12 39 -32 61q-16 24 -56 45q-40 19 -88 19q-103 -6 -143 -64q-26 -29 -34.5 -65.5t-8.5 -102.5z" />
<glyph unicode="&#xa9;" horiz-adv-x="1617" d="M100 725q3 315 213 528q200 212 508 215q304 -3 510 -215q203 -212 209 -528q-6 -316 -209 -522q-201 -213 -510 -219q-310 6 -508 219q-210 207 -213 522zM256 725q0 -259 162 -426q156 -170 403 -170q250 0 406 170q156 164 159 426q-3 266 -159 430q-155 165 -406 168 q-248 -3 -403 -168q-162 -167 -162 -430zM420 725q0 215 112 343.5t316 131.5q142 0 246 -84q96 -75 118 -252h-141q-14 82 -73.5 135.5t-147.5 53.5q-134 -3 -203 -92q-74 -95 -74 -232q0 -133 76 -227q76 -105 205 -105q89 0 147 55.5t70 143.5h141q-65 -341 -358 -344 q-206 0 -319 137q-115 127 -115 336z" />
<glyph unicode="&#xaa;" horiz-adv-x="679" d="M39 1014q0 90 55.5 146.5t147.5 56.5h223v36q-3 59 -43 70q-45 10 -92 10q-69 0 -99 -8t-49 -39l-102 90q42 54 93.5 73t150.5 19q291 6 297 -204v-426h-156v59h-4q-38 -68 -160 -68q-140 0 -201 58q-61 55 -61 127zM193 1024q0 -13 14 -27q24 -34 108 -34q96 0 125 20 q25 22 25 74v37h-160q-112 0 -112 -70z" />
<glyph unicode="&#xab;" horiz-adv-x="876" d="M57 563l406 414v-209l-209 -205l209 -207v-206zM432 563l406 414v-209l-211 -205l211 -207v-206z" />
<glyph unicode="&#xac;" horiz-adv-x="1136" d="M78 639v162h1005v-586h-153v424h-852z" />
<glyph unicode="&#xad;" horiz-adv-x="698" d="M70 459v209h598v-209h-598z" />
<glyph unicode="&#xae;" horiz-adv-x="1617" d="M100 725q3 312 213 528q200 212 508 215q304 -3 510 -215q203 -212 209 -528q-6 -316 -209 -522q-201 -213 -510 -219q-310 6 -508 219q-210 207 -213 522zM256 725q0 -259 162 -426q156 -170 403 -170q250 0 406 170q156 164 159 426q-3 266 -159 430q-155 165 -406 168 q-248 -3 -403 -168q-162 -167 -162 -430zM549 311v869h317q289 3 289 -258q-3 -129 -61 -187q-64 -58 -154 -67l242 -357h-166l-244 353h-80v-353h-143zM692 799h99q90 -3 155 18t68 105q-3 77 -60 102q-50 20 -131 20h-131v-245z" />
<glyph unicode="&#xaf;" horiz-adv-x="641" d="M41 1241v133h571v-133h-571z" />
<glyph unicode="&#xb0;" horiz-adv-x="634" d="M37 1176q2 123 83 207t202 85q122 -1 201 -84t81 -208q-2 -124 -81 -208t-201 -85q-119 1 -201 86.5t-84 206.5zM137 1176q0 -82 58 -134q48 -57 127 -57q77 0 129.5 56t54.5 135q-3 79 -53 135q-53 50 -131 53q-78 -2 -131.5 -56t-53.5 -132z" />
<glyph unicode="&#xb1;" horiz-adv-x="1114" d="M57 -4v160h1006v-160h-1006zM57 575v160h426v297h156v-297h424v-160h-424v-296h-156v296h-426z" />
<glyph unicode="&#xb2;" horiz-adv-x="638" d="M37 584v145l360 389q45 42 45 99q0 50 -31 78t-83 28q-110 -3 -119 -129h-166q0 122 76 197t200 77q129 -3 209 -71q77 -77 80 -183q0 -48 -10 -79q-19 -45 -53 -82l-305 -324h368v-145h-571z" />
<glyph unicode="&#xb3;" horiz-adv-x="665" d="M37 821h166q30 -95 135 -98q56 0 93 32t38 87q-3 59 -41 94q-39 33 -102 33h-76v135h63q61 0 103.5 29.5t42.5 83.5q0 42 -33 75q-43 31 -84 31q-54 0 -88.5 -29t-46.5 -80h-166q12 114 86.5 183.5t194.5 70.5q149 -3 227 -75q76 -73 76 -174q0 -67 -26 -108.5t-79 -74.5 q115 -63 115 -190q-1 -127 -85.5 -199t-221.5 -72q-242 -3 -291 246z" />
<glyph unicode="&#xb4;" horiz-adv-x="499" d="M29 1169l184 299h264l-280 -299h-168z" />
<glyph unicode="&#xb5;" horiz-adv-x="923" d="M76 -426v1460h203v-618q0 -99 54 -162.5t146 -63.5t145.5 63.5t53.5 162.5v618h203v-1038h-203v108h-4q-100 -120 -260 -120q-65 0 -135 28v-438h-203z" />
<glyph unicode="&#xb6;" horiz-adv-x="987" d="M59 1063q6 393 459 393h422v-1841h-154v1708h-153v-1708h-156v1067q-189 3 -299 113q-119 107 -119 268z" />
<glyph unicode="&#xb7;" horiz-adv-x="309" d="M29 594q0 57 38 97t95 40t96 -40t39 -97q0 -56 -39.5 -96.5t-95.5 -40.5t-94.5 40.5t-38.5 96.5z" />
<glyph unicode="&#xb8;" horiz-adv-x="503" d="M37 -420l35 86q73 -28 139 -31q111 0 117 89q0 39 -27.5 57t-71.5 18q-38 3 -77 -22l-48 39l132 180h100l-88 -123h4q21 8 55 8q76 0 125 -42t49 -113q-3 -101 -71 -146q-70 -49 -172 -49q-97 3 -201 49z" />
<glyph unicode="&#xb9;" horiz-adv-x="440" d="M66 1196v174l131 90h165v-876h-165v704z" />
<glyph unicode="&#xba;" horiz-adv-x="651" d="M35 1149q0 92 14 141q12 51 49 88q84 90 232 90q140 0 227 -90q38 -41 53 -88q11 -48 11 -141q0 -94 -11 -139q-26 -84 -103.5 -132.5t-178.5 -48.5q-148 0 -230 91q-37 37 -49 90q-14 46 -14 139zM190 1149q-6 -96 29 -137q34 -49 109 -49q53 0 89.5 28.5t45.5 75.5 q4 32 4 82q2 92 -30 137.5t-107 46.5q-74 -3 -111 -49q-19 -21 -22 -51q-7 -31 -7 -84z" />
<glyph unicode="&#xbb;" horiz-adv-x="864" d="M45 150v206l203 207l-203 205v209l406 -414zM420 150v206l203 207l-203 205v209l405 -414z" />
<glyph unicode="&#xbc;" horiz-adv-x="1421" d="M86 1196v174l131 90h168v-876h-168v704zM178 -41l856 1532h133l-858 -1532h-131zM731 123v145l309 598h168l-303 -598h217v228h166v-228h68v-145h-68v-127h-166v127h-391z" />
<glyph unicode="&#xbd;" horiz-adv-x="1433" d="M86 1196v174l131 90h168v-876h-168v704zM127 -41l858 1532h139l-864 -1532h-133zM795 -4v145l360 385q45 42 45 101q0 50 -31 77t-86 27q-107 -3 -116 -127h-166q0 121 76.5 197t199.5 78q130 -3 211 -72q75 -72 78 -180q0 -48 -10 -82q-13 -36 -56 -82l-305 -322h371 v-145h-571z" />
<glyph unicode="&#xbe;" horiz-adv-x="1527" d="M96 821h168q29 -95 135 -98q57 0 92.5 32t38.5 87q-3 59 -41.5 93t-101.5 34h-76v135h66q61 0 102 29.5t41 83.5q0 44 -31 75q-43 31 -86 31q-53 0 -87.5 -29.5t-47.5 -79.5h-168q12 114 88.5 183.5t196.5 70.5q148 -3 223 -75q78 -78 78 -174q0 -119 -104 -183 q114 -65 114 -190q-1 -127 -85.5 -199t-221.5 -72q-243 -3 -293 246zM336 -41l862 1532h131l-858 -1532h-135zM836 123v145l307 598h168l-303 -598h217v228h168v-228h63v-145h-63v-127h-168v127h-389z" />
<glyph unicode="&#xbf;" horiz-adv-x="868" d="M68 -43q0 127 65 213l186 258q38 53 35 129v119h203v-135q0 -70 -6 -103q-13 -50 -45 -96l-184 -254q-52 -70 -52 -135q0 -82 58 -131q51 -48 112 -51q80 0 131 51t54 174h202v-41q-3 -172 -110 -279q-105 -111 -264 -114q-156 3 -267 108q-115 106 -118 287zM354 827 v207h203v-207h-203z" />
<glyph unicode="&#xc4;" horiz-adv-x="1249" d="M4 0l531 1456h184l530 -1456h-233l-113 324h-270v196h205l-213 637l-211 -637h202v-196h-266l-112 -324h-234zM332 1559v221h221v-221h-221zM690 1559v221h221v-221h-221z" />
<glyph unicode="&#xc5;" horiz-adv-x="1376" d="M4 0l531 1456h184l530 -1456h-233l-113 324h-553l-112 -324h-234zM414 520l211 637h4l211 -637h-426zM416 1708q0 86 62.5 148.5t148.5 62.5t148.5 -62.5t62.5 -148.5t-62.5 -148.5t-148.5 -62.5t-148.5 62.5t-62.5 148.5zM498 1708q0 -54 37.5 -91.5t91.5 -37.5 t91.5 37.5t37.5 91.5t-37.5 91.5t-91.5 37.5t-91.5 -37.5t-37.5 -91.5z" />
<glyph unicode="&#xc8;" horiz-adv-x="1632" d="M98 727q0 301 213 514q212 215 516 215q299 0 514 -215t215 -514q0 -298 -213 -514q-212 -215 -516 -215q-298 0 -514 213q-215 215 -215 516zM193 727q0 -262 186 -448q187 -187 448 -187q265 0 449 187q184 181 184 448q0 268 -184 449q-183 186 -449 186 q-262 0 -448 -186t-186 -449zM393 326l357 858h155l359 -858h-166l-74 182h-391l-74 -182h-166zM680 633h295l-148 377z" />
<glyph unicode="&#xc9;" horiz-adv-x="1632" d="M98 727q0 301 213 514q212 215 516 215q299 0 514 -215t215 -514q0 -298 -213 -514q-212 -215 -516 -215q-298 0 -514 213q-215 215 -215 516zM193 727q0 -262 186 -448q187 -187 448 -187q265 0 449 187q184 181 184 448q0 268 -184 449q-183 186 -449 186 q-262 0 -448 -186t-186 -449zM500 326v835h409q117 0 178 -61q60 -60 60 -142q0 -76 -29 -116q-32 -44 -102 -72q81 0 129.5 -58.5t48.5 -144.5q0 -105 -61 -172q-63 -69 -224 -69h-409zM655 461h244q141 0 141 117q0 58 -41 88q-45 28 -106 28h-238v-233zM655 819h197 q139 0 139 111q0 56 -33.5 76t-105.5 20h-197v-207z" />
<glyph unicode="&#xca;" horiz-adv-x="1632" d="M98 727q0 301 213 514q212 215 516 215q299 0 514 -215t215 -514q0 -298 -213 -514q-212 -215 -516 -215q-298 0 -514 213q-215 215 -215 516zM193 727q0 -262 186 -448q187 -187 448 -187q265 0 449 187q184 181 184 448q0 268 -184 449q-183 186 -449 186 q-262 0 -448 -186t-186 -449zM408 743q0 197 114 320q112 121 305 121q293 0 375 -256h-162q-57 123 -213 123q-122 0 -194 -93t-72 -215q0 -120 70 -215q66 -90 196 -90q85 0 141.5 44.5t82.5 119.5h157q-26 -129 -106 -194q-71 -60 -141 -84q-67 -23 -134 -23 q-187 0 -303 124t-116 318z" />
<glyph unicode="&#xd6;" horiz-adv-x="1247" d="M106 727q0 263 15 340q16 83 49 139q54 98 168 178q119 84 289 84q167 0 286 -84q117 -82 170 -178q36 -67 50 -139q14 -71 14 -340t-14 -340q-14 -72 -50 -139q-53 -96 -170 -178q-116 -82 -286 -82q-173 0 -289 82q-114 80 -168 178q-33 56 -49 139q-15 77 -15 340z M328 727q0 -230 14 -293q14 -64 59 -121q34 -47 93.5 -76.5t132.5 -29.5t132 29.5t93 76.5q42 54 57 121q17 77 17 293q0 215 -17 291q-29 129 -147 196q-64 33 -135 33q-72 0 -130.5 -30t-95.5 -76q-44 -56 -59 -123q-14 -63 -14 -291zM336 1556v222h221v-222h-221z M696 1556v222h222v-222h-222z" />
<glyph unicode="&#xd7;" horiz-adv-x="1030" d="M57 152l357 362l-357 367l111 112l352 -366l352 366l111 -112l-369 -367l369 -362l-111 -115l-352 369l-352 -369z" />
<glyph unicode="&#xdc;" horiz-adv-x="1288" d="M129 492v964h221v-940q0 -149 86 -229t211 -80t211 80t86 229v940h221v-964q0 -228 -151 -367q-149 -137 -367 -137q-219 0 -368 137q-150 138 -150 367zM356 1556v222h222v-222h-222zM717 1556v222h221v-222h-221z" />
<glyph unicode="&#xdf;" horiz-adv-x="1097" d="M133 0v1128q0 170 123 256q121 84 313 84q174 0 288 -93t114 -253q0 -166 -150 -231q150 -61 150 -227v-371q0 -121 -80 -207t-209 -86h-129v195h74q135 0 135 108v365q0 120 -115 120h-121v197h125q111 0 111 121q0 78 -33 111q-58 46 -180 43q-120 -3 -160 -35 q-44 -35 -47 -97v-1128h-209z" />
<glyph unicode="&#xe4;" horiz-adv-x="1024" d="M55 303q0 125 84 215q86 92 254 92h289v109q0 133 -213 133q-147 0 -197 -80l-163 125q109 152 350 152q190 0 311 -74t121 -268v-707h-209v90h-4q-63 -102 -256 -102q-174 0 -270 90q-97 91 -97 225zM223 1198v221h221v-221h-221zM252 313q0 -53 45 -92t152 -39 q122 0 182 31q51 26 51 149v76h-250q-180 0 -180 -125zM584 1198v221h221v-221h-221z" />
<glyph unicode="&#xef;" horiz-adv-x="1263" d="M6 0l531 1456h184l528 -1456h-233l-113 324h-452v196h389l-209 637h-4l-211 -637h35v-196h-101l-110 -324h-234z" />
<glyph unicode="&#xf6;" horiz-adv-x="1024" d="M86 518q0 157 27 250q48 149 204 238q76 43 197 43t197 -43q79 -45 129 -101.5t75 -136.5q25 -86 25 -250q0 -166 -25 -252q-49 -152 -204 -237q-72 -41 -197 -41t-197 41q-155 85 -204 237q-27 93 -27 252zM223 1198v221h221v-221h-221zM295 518q0 -108 10 -160 q9 -44 41 -88q51 -75 168 -75q114 0 168 75q34 50 42.5 95.5t8.5 150.5t-8.5 150.5t-42.5 97.5q-55 76 -168 76q-116 0 -168 -76q-35 -50 -43 -94.5t-8 -151.5zM584 1198v221h221v-221h-221z" />
<glyph unicode="&#xf7;" horiz-adv-x="1138" d="M78 434v160h1007v-160h-1007zM449 88q0 57 38 97t95 40q58 0 95.5 -39t37.5 -98q0 -58 -37.5 -95.5t-95.5 -39.5q-56 2 -94.5 40.5t-38.5 94.5zM449 938q0 56 38.5 96.5t94.5 40.5q58 0 95.5 -39t37.5 -98q0 -57 -38 -96t-95 -39q-55 0 -94 40t-39 95z" />
<glyph unicode="&#xfc;" horiz-adv-x="1097" d="M137 346v690h209v-618q0 -100 56 -161.5t151 -61.5q93 0 149 62t56 161v618h209v-1036h-209v109h-4q-97 -121 -269 -121q-123 0 -235 90q-113 91 -113 268zM250 1198v221h221v-221h-221zM610 1198v221h221v-221h-221z" />
<glyph unicode="&#xfe;" horiz-adv-x="1263" d="M6 0l531 1456h184l528 -1456h-233l-113 324h-276v196h213l-209 637h-4l-211 -637h205v-196h-271l-110 -324h-234z" />
<glyph unicode="&#x152;" horiz-adv-x="1638" d="M115 725q0 294 213 510q213 213 510 213q296 0 510 -211q215 -215 215 -512q0 -296 -211 -510q-212 -215 -514 -215q-294 0 -510 213q-213 213 -213 512zM209 725q0 -260 184 -444q185 -185 445 -185q259 0 444 185q184 184 184 444t-184 444q-185 185 -444 185 q-260 0 -445 -185q-184 -184 -184 -444zM588 961v196h540v-39l-417 -821l-115 61l344 674h-229v-71h-123z" />
<glyph unicode="&#x2c6;" horiz-adv-x="1638" d="M115 725q0 294 213 510q213 213 510 213q296 0 510 -211q215 -215 215 -512q0 -296 -211 -510q-212 -215 -514 -215q-294 0 -510 213q-213 213 -213 512zM209 725q0 -260 184 -444q185 -185 445 -185q259 0 444 185q184 184 184 444t-184 444q-185 185 -444 185 q-260 0 -445 -185q-184 -184 -184 -444zM565 528h123q0 -58 35 -86q38 -32 88 -32q59 0 98 35.5t39 93.5q0 74 -51 108.5t-135 34.5v115q74 0 127 30q49 27 49 101q0 51 -36 86t-89 35q-55 0 -85 -33t-30 -88h-123q0 111 64 178q68 65 190 65q101 0 166.5 -64.5t65.5 -164.5 q0 -70 -31 -113.5t-88 -76.5q139 -62 139 -207q0 -114 -74 -181t-190 -67q-119 0 -185.5 58.5t-66.5 172.5z" />
<glyph unicode="&#x2dc;" horiz-adv-x="798" d="M53 1190q15 103 72 170t154 67q40 0 76 -10.5t74.5 -28.5t59.5 -24q25 -14 60 -14q73 -5 94 90h119q-16 -99 -66 -164q-53 -74 -151 -74q-41 0 -76 15q-47 11 -76 22q-73 36 -137 39q-19 0 -51 -16q-33 -23 -33 -72h-119z" />
<glyph unicode="&#x2000;" horiz-adv-x="959" />
<glyph unicode="&#x2001;" horiz-adv-x="1919" />
<glyph unicode="&#x2002;" horiz-adv-x="959" />
<glyph unicode="&#x2003;" horiz-adv-x="1919" />
<glyph unicode="&#x2004;" horiz-adv-x="639" />
<glyph unicode="&#x2005;" horiz-adv-x="479" />
<glyph unicode="&#x2006;" horiz-adv-x="319" />
<glyph unicode="&#x2007;" horiz-adv-x="319" />
<glyph unicode="&#x2008;" horiz-adv-x="239" />
<glyph unicode="&#x2009;" horiz-adv-x="383" />
<glyph unicode="&#x200a;" horiz-adv-x="106" />
<glyph unicode="&#x2010;" horiz-adv-x="831" d="M111 461v209h616v-209h-616z" />
<glyph unicode="&#x2011;" horiz-adv-x="831" d="M111 461v209h616v-209h-616z" />
<glyph unicode="&#x2012;" horiz-adv-x="831" d="M111 461v209h616v-209h-616z" />
<glyph unicode="&#x2013;" horiz-adv-x="1112" d="M68 465v197h993v-197h-993z" />
<glyph unicode="&#x2014;" horiz-adv-x="2039" d="M45 465v197h1991v-197h-1991z" />
<glyph unicode="&#x2018;" horiz-adv-x="399" d="M102 1096v209l201 151v-360h-201z" />
<glyph unicode="&#x2019;" horiz-adv-x="399" d="M102 1096v360h201v-209z" />
<glyph unicode="&#x201a;" horiz-adv-x="399" d="M102 -158v361h201v-207z" />
<glyph unicode="&#x201c;" horiz-adv-x="681" d="M72 1096v209l202 151v-360h-202zM389 1096v209l203 151v-360h-203z" />
<glyph unicode="&#x201d;" horiz-adv-x="659" d="M82 1096v360h201v-209zM397 1096v360h203v-209z" />
<glyph unicode="&#x201e;" horiz-adv-x="659" d="M82 -158v361h201v-207zM397 -158v361h203v-207z" />
<glyph unicode="&#x2022;" horiz-adv-x="811" d="M68 725q0 154 104 258q98 104 250 107q149 -3 250 -107q99 -102 102 -258q-3 -154 -102 -256q-97 -106 -250 -109q-153 3 -250 109q-104 101 -104 256z" />
<glyph unicode="&#x202f;" horiz-adv-x="383" />
<glyph unicode="&#x2039;" horiz-adv-x="1638" d="M115 725q0 294 213 510q213 213 510 213q296 0 510 -211q215 -215 215 -512q0 -296 -211 -510q-212 -215 -514 -215q-294 0 -510 213q-213 213 -213 512zM209 725q0 -260 184 -444q185 -185 445 -185q259 0 444 185q184 184 184 444t-184 444q-185 185 -444 185 q-260 0 -445 -185q-184 -184 -184 -444zM553 580q0 78 22 129q24 62 70 125l236 337l114 -49l-225 -319q58 12 92 12q108 0 175 -69.5t67 -178.5q0 -121 -82 -195.5t-207 -74.5q-121 0 -191.5 79t-70.5 204zM696 565q0 -62 37 -102.5t96 -40.5q58 0 93.5 40.5t35.5 102.5 q0 63 -34.5 104.5t-94.5 41.5q-61 0 -97 -41.5t-36 -104.5z" />
<glyph unicode="&#x205f;" horiz-adv-x="479" />
<glyph unicode="&#x2122;" horiz-adv-x="1912" d="M86 1311v145h647v-145h-248v-701h-153v701h-246zM881 610v846h241l230 -625l229 625h242v-846h-154v686h-4l-262 -686h-103l-262 686h-4v-686h-153z" />
<glyph unicode="&#x25fc;" horiz-adv-x="1035" d="M0 0v1035h1035v-1035h-1035z" />
</font>
</defs>
</svg>
